<svg xmlns="http://www.w3.org/2000/svg" xmlns:xlink="http://www.w3.org/1999/xlink" width="1080" zoomAndPan="magnify" viewBox="0 0 810 1012.49997" height="1350" preserveAspectRatio="xMidYMid meet" version="1.0"><defs><clipPath id="24320960a9"><path d="M 0.199219 0 L 809.800781 0 L 809.800781 1012 L 0.199219 1012 Z M 0.199219 0 " clip-rule="nonzero"/></clipPath><clipPath id="c1a85e1b50"><path d="M 132.429688 298 L 605.417969 298 L 605.417969 774.953125 L 132.429688 774.953125 Z M 132.429688 298 " clip-rule="nonzero"/></clipPath><clipPath id="f636cd70f8"><path d="M 204 298 L 677.410156 298 L 677.410156 774.953125 L 204 774.953125 Z M 204 298 " clip-rule="nonzero"/></clipPath><clipPath id="834e0c8f40"><path d="M 132.429688 241.167969 L 677.410156 241.167969 L 677.410156 590 L 132.429688 590 Z M 132.429688 241.167969 " clip-rule="nonzero"/></clipPath></defs><g clip-path="url(#24320960a9)"><path fill="#ffffff" d="M 0.199219 0 L 809.800781 0 L 809.800781 1019.496094 L 0.199219 1019.496094 Z M 0.199219 0 " fill-opacity="1" fill-rule="nonzero"/><path fill="#ffffff" d="M 0.199219 0 L 809.800781 0 L 809.800781 1012 L 0.199219 1012 Z M 0.199219 0 " fill-opacity="1" fill-rule="nonzero"/><path fill="#ffffff" d="M 0.199219 0 L 809.800781 0 L 809.800781 1012 L 0.199219 1012 Z M 0.199219 0 " fill-opacity="1" fill-rule="nonzero"/></g><g clip-path="url(#c1a85e1b50)"><path fill="#723fa3" d="M 316.238281 487.46875 C 316.070312 487.46875 315.894531 487.46875 315.894531 487.46875 L 161.304688 485.207031 C 145.132812 485.03125 132.089844 471.640625 132.4375 455.464844 C 132.613281 439.464844 145.824219 426.597656 161.820312 426.597656 C 161.996094 426.597656 162.175781 426.597656 162.175781 426.597656 L 316.761719 428.859375 C 332.9375 429.03125 345.976562 442.421875 345.632812 458.597656 C 345.457031 474.59375 332.238281 487.46875 316.238281 487.46875 Z M 478.484375 774.953125 C 468.050781 774.953125 457.960938 769.378906 452.574219 759.644531 L 378.839844 623.816406 C 371.191406 609.554688 376.410156 591.816406 390.667969 583.992188 C 404.925781 576.335938 422.660156 581.550781 430.484375 595.820312 L 504.222656 731.644531 C 511.871094 745.902344 506.652344 763.648438 492.394531 771.472656 C 488.046875 773.730469 483.175781 774.953125 478.484375 774.953125 Z M 493.085938 428.859375 L 547.347656 427.992188 L 600.902344 343.117188 C 609.425781 329.375 605.425781 311.289062 591.691406 302.59375 C 577.949219 294.074219 559.867188 298.070312 551.171875 311.8125 L 471.875 437.726562 C 471.527344 438.425781 471.179688 439.117188 470.835938 439.640625 C 476.050781 433.207031 484.046875 429.03125 493.085938 428.859375 " fill-opacity="1" fill-rule="nonzero"/></g><g clip-path="url(#f636cd70f8)"><path fill="#4da4e0" d="M 493.609375 487.46875 C 477.613281 487.46875 464.570312 474.59375 464.226562 458.597656 C 464.050781 442.421875 476.921875 429.03125 493.085938 428.859375 L 647.507812 426.597656 C 664.027344 426.421875 677.066406 439.296875 677.246094 455.464844 C 677.414062 471.640625 664.550781 485.03125 648.375 485.207031 L 493.957031 487.46875 C 493.789062 487.46875 493.789062 487.46875 493.609375 487.46875 Z M 262.332031 427.992188 L 316.761719 428.859375 C 325.632812 429.03125 333.460938 433.03125 338.675781 439.296875 C 338.5 438.773438 338.152344 438.425781 337.976562 437.902344 L 258.683594 311.984375 C 249.992188 298.246094 231.902344 294.074219 218.167969 302.773438 C 204.425781 311.46875 200.253906 329.550781 208.949219 343.289062 Z M 378.839844 623.816406 C 374.839844 616.164062 374.324219 607.640625 376.933594 600.167969 C 376.757812 600.335938 376.578125 600.683594 376.578125 600.859375 L 305.636719 731.644531 C 297.980469 745.902344 303.199219 763.816406 317.457031 771.472656 C 321.804688 773.730469 326.671875 774.953125 331.367188 774.953125 C 341.800781 774.953125 351.886719 769.378906 357.28125 759.644531 L 404.925781 671.820312 L 378.839844 623.816406 " fill-opacity="1" fill-rule="nonzero"/></g><g clip-path="url(#834e0c8f40)"><path fill="#f2ee11" d="M 404.753906 435.640625 C 400.054688 435.640625 395.191406 434.425781 390.84375 432.160156 C 376.578125 424.511719 371.363281 406.597656 379.019531 392.339844 L 452.746094 256.507812 C 460.402344 242.25 478.308594 237.03125 492.570312 244.679688 C 506.828125 252.335938 512.046875 270.246094 504.390625 284.511719 L 430.664062 420.335938 C 425.269531 430.078125 415.1875 435.640625 404.753906 435.640625 Z M 291.203125 541.90625 C 295.894531 534.59375 303.027344 530.078125 310.851562 528.683594 C 310.675781 528.683594 310.5 528.683594 310.5 528.683594 C 310.5 528.683594 310.332031 528.683594 310.152344 528.683594 L 161.304688 530.769531 C 145.132812 530.945312 132.265625 544.335938 132.4375 560.511719 C 132.78125 576.511719 145.824219 589.378906 161.820312 589.378906 C 161.820312 589.378906 161.996094 589.378906 162.175781 589.378906 L 262.164062 587.992188 Z M 648.550781 530.769531 L 499.695312 528.683594 C 499.695312 528.683594 499.527344 528.683594 499.351562 528.683594 C 499.351562 528.683594 499.351562 528.683594 499.175781 528.683594 C 506.828125 530.078125 514.132812 534.773438 518.65625 541.90625 L 547.695312 587.992188 L 647.683594 589.378906 C 647.683594 589.378906 647.851562 589.378906 648.027344 589.378906 C 664.027344 589.378906 677.246094 576.511719 677.414062 560.511719 C 677.765625 544.335938 664.726562 530.945312 648.550781 530.769531 " fill-opacity="1" fill-rule="nonzero"/></g><path fill="#ee217f" d="M 233.640625 717.730469 C 228.253906 717.730469 222.859375 716.335938 217.988281 713.210938 C 204.253906 704.515625 200.253906 686.425781 208.773438 672.6875 L 291.203125 541.90625 C 299.898438 528.160156 317.980469 524.160156 331.71875 532.6875 C 345.457031 541.382812 349.457031 559.464844 340.929688 573.210938 L 258.507812 703.992188 C 252.945312 712.859375 243.382812 717.730469 233.640625 717.730469 Z M 576.210938 717.730469 C 566.476562 717.730469 556.910156 712.859375 551.34375 703.992188 L 468.917969 573.210938 C 460.222656 559.464844 464.394531 541.382812 478.136719 532.6875 C 491.871094 523.992188 509.960938 528.160156 518.65625 541.90625 L 601.078125 672.6875 C 609.773438 686.425781 605.601562 704.515625 591.859375 713.210938 C 586.988281 716.335938 581.601562 717.730469 576.210938 717.730469 Z M 379.019531 392.339844 L 404.925781 344.679688 L 357.105469 256.507812 C 349.28125 242.25 331.542969 237.03125 317.285156 244.679688 C 303.027344 252.507812 297.8125 270.246094 305.460938 284.511719 L 376.410156 415.292969 C 376.757812 415.988281 377.101562 416.6875 377.625 417.203125 C 374.492188 409.375 374.671875 400.335938 379.019531 392.339844 " fill-opacity="1" fill-rule="nonzero"/></svg>